P2
20 13
255
96 74 77 78 77 84 85 80 81 76 73 75 103 107 109 110 112 124 139 133 88 81 82 
91 86 84 91 103 79 78 99 94 106 84 99 96 112 123 121 129 85 93 84 89 91 87 103 
120 113 102 104 107 102 92 93 106 99 106 108 109 80 86 82 75 87 89 102 113 116 
107 95 106 97 107 116 111 112 103 108 114 83 87 77 78 108 99 101 94 99 97 127 
117 106 106 106 120 125 114 109 125 102 90 89 80 115 129 126 110 87 103 106 
132 125 122 110 110 112 101 95 107 112 120 104 84 100 107 124 97 113 114 92 96 
91 96 115 114 117 123 130 126 103 109 94 106 94 106 105 107 85 90 89 101 104 
111 107 109 117 122 138 124 102 101 100 108 102 101 107 101 118 122 115 114 
92 98 101 108 118 126 120 116 100 102 98 103 116 108 103 98 117 106 128 138 
117 119 110 99 101 105 103 110 111 106 101 99 105 98 104 101 96 105 138 137 
110 123 117 115 129 122 108 112 117 120 101 99 107 100 108 105 132 139 132 147 
137 128 139 143 135 125 105 130 108 131 131 98 113 130 117 129 100 105 124 147 
167 158 141 131 137 130 124 131 
