P2
20 13
255
67 70 79 75 60 82 81 79 92 94 99 103 104 97 95 113 123 108 102 99 72 77 83 67 
76 85 92 92 102 115 112 89 110 117 104 109 110 116 116 115 70 73 73 67 93 95 
93 87 101 102 106 114 128 119 112 127 126 122 116 116 65 72 99 105 95 88 104 
112 110 109 108 110 117 113 107 108 91 112 115 116 75 73 91 98 96 93 109 95 89 
101 100 103 104 102 103 115 110 116 114 113 71 75 82 89 91 95 98 89 92 93 102 
100 117 120 107 131 119 136 130 120 62 85 107 118 101 86 85 99 120 113 113 115 
129 130 126 127 131 139 131 126 75 71 94 101 99 95 117 99 126 119 115 136 125 
131 142 150 148 131 147 151 90 85 86 91 93 95 99 93 122 134 149 156 139 128 
126 139 163 157 131 125 101 85 92 95 103 97 89 110 118 120 146 141 137 99 146 
145 149 143 124 120 86 87 92 90 98 94 106 116 101 128 134 139 141 139 140 146 
127 114 135 147 107 87 96 91 90 108 126 114 110 142 160 170 169 152 147 150 
139 146 146 136 104 104 105 106 103 122 120 123 129 134 137 141 133 132 148 
128 130 161 164 149 
