P2
20 13
255
62 65 61 59 71 114 88 90 108 117 117 109 116 129 136 141 138 145 115 91 69 65 
57 81 81 93 90 86 105 118 123 124 125 120 127 120 111 107 111 88 77 87 79 90 
79 84 72 89 86 99 110 110 107 113 109 106 108 111 111 98 81 79 104 84 100 86 
84 97 103 110 110 121 120 123 120 118 117 116 116 109 85 75 97 97 95 80 83 108 
104 108 109 116 118 122 119 117 118 123 124 105 73 85 86 108 106 92 106 100 
103 119 140 141 147 149 133 126 113 108 115 105 74 106 86 106 116 107 116 107 
116 119 156 149 155 135 130 121 119 116 116 113 79 79 74 76 99 122 117 138 117 
136 147 154 149 162 134 128 124 123 122 104 93 104 71 80 98 135 133 140 123 
125 144 153 158 162 133 126 119 104 106 92 98 89 95 81 97 107 117 109 125 132 
140 152 141 135 133 118 104 93 101 113 84 75 82 88 89 93 104 119 127 126 131 
153 154 144 129 105 104 97 125 137 100 72 69 86 68 119 98 111 117 114 121 128 
135 147 130 122 108 108 125 173 77 76 82 100 106 110 114 103 109 108 119 123 
127 129 114 142 130 115 143 138 
