P2
20 14
255
134 137 144 143 161 141 123 114 102 97 94 86 81 83 82 82 81 82 76 68 156 163 
157 120 100 87 98 101 90 91 90 88 79 90 97 101 102 100 78 61 112 108 99 79 82 
91 107 103 95 100 104 114 102 109 111 122 124 112 86 64 81 84 89 75 76 116 135 
134 115 97 99 91 127 144 135 128 127 101 87 66 75 78 83 67 67 118 151 167 131 
110 101 94 149 173 147 148 167 151 87 71 78 76 82 71 66 113 111 152 76 106 143 
103 159 177 152 146 173 171 86 56 86 85 78 73 52 105 89 132 79 85 95 85 125 
158 144 138 148 150 78 75 84 77 69 68 48 67 133 125 77 85 97 65 59 94 138 138 
103 121 64 49 94 94 66 46 73 59 80 59 77 88 55 52 51 105 129 118 80 97 57 52 
93 97 69 40 81 55 50 66 101 59 43 66 44 75 125 101 84 81 52 137 86 113 78 63 
61 70 61 60 73 75 60 51 56 60 83 89 76 63 68 175 153 149 148 153 145 113 114 
110 107 69 76 83 93 102 107 110 94 89 83 110 214 218 218 216 212 206 203 201 
200 195 189 178 177 163 166 167 139 131 123 105 230 228 227 225 223 223 220 
215 215 212 214 212 208 207 206 206 202 197 190 184 
