P2
20 14
255
131 136 139 123 152 159 154 139 121 109 98 91 87 79 82 82 80 79 72 67 127 150 
165 161 134 96 96 105 95 92 92 88 80 79 87 92 95 99 89 68 144 126 110 96 82 84 
99 106 93 90 100 108 103 103 106 108 113 113 88 71 82 85 87 86 65 91 120 133 
123 105 98 95 104 132 139 126 135 106 95 80 68 76 79 79 57 89 135 158 148 119 
103 95 111 160 168 124 160 137 105 76 72 78 76 81 59 91 127 123 112 105 121 
132 120 177 178 128 168 171 118 81 83 84 82 76 58 82 107 89 122 74 95 96 108 
162 170 124 151 159 114 73 89 80 77 67 59 56 105 127 116 81 95 88 70 65 138 
139 127 117 91 59 98 88 84 52 44 59 74 80 61 63 79 51 55 58 138 128 97 98 76 
51 99 88 92 39 59 81 51 52 106 66 57 53 55 47 127 116 80 82 63 75 99 96 91 60 
47 65 55 49 62 68 65 48 47 56 83 88 85 68 64 139 127 131 129 131 128 107 90 96 
92 72 64 68 76 85 93 95 94 86 81 93 212 211 215 211 206 203 197 192 188 178 
167 164 159 157 145 162 138 111 110 100 229 227 226 223 224 220 216 214 213 
213 213 210 207 206 204 203 198 191 183 172 
