P2
20 14
255
134 137 141 122 167 157 146 125 115 101 94 89 81 84 81 82 80 77 70 67 139 164 
164 147 111 91 100 102 91 93 91 86 77 85 91 95 98 99 81 62 135 113 105 85 85 
89 106 103 89 96 104 111 102 105 106 114 116 105 84 63 83 86 90 76 74 110 130 
132 115 99 96 93 121 139 133 130 127 105 89 67 73 78 81 70 65 115 146 162 137 
108 102 93 140 168 144 145 159 135 86 66 77 76 82 73 64 109 125 152 77 107 141 
104 160 178 151 148 174 170 89 62 85 85 79 75 53 106 91 130 84 81 98 88 140 
167 145 138 157 159 80 65 85 78 73 70 49 71 126 134 86 93 98 72 64 98 140 141 
109 125 66 57 95 93 67 47 61 56 90 60 67 82 60 49 52 104 131 124 85 104 56 54 
93 91 72 39 90 55 50 67 103 67 45 65 45 82 125 101 82 81 52 113 88 112 73 56 
53 65 54 56 71 71 55 50 51 58 92 91 75 64 64 178 135 137 132 137 130 98 98 96 
95 61 68 74 82 91 97 98 92 84 80 125 212 216 215 212 207 203 198 192 189 176 
173 162 164 152 155 161 123 116 108 94 230 228 226 224 224 220 217 214 214 213 
213 210 208 207 205 203 196 190 180 169 
