P2
20 14
255
135 137 145 144 162 139 123 114 101 97 94 85 80 82 82 81 81 82 76 68 159 163 
155 118 99 88 99 100 88 90 90 87 79 90 97 101 102 100 79 61 112 108 98 79 82 
93 107 102 94 101 104 114 102 108 111 120 125 115 85 65 81 84 89 74 77 117 136 
133 114 96 98 89 126 142 134 128 132 101 87 68 76 78 82 66 70 119 152 165 132 
109 100 93 146 172 148 147 168 154 91 74 78 76 82 69 68 114 112 152 78 106 142 
104 155 177 156 145 171 172 94 60 85 84 78 72 54 107 89 133 82 85 95 86 125 
158 148 134 147 151 86 79 83 77 69 68 48 70 133 128 80 87 98 67 61 90 138 137 
106 124 69 50 92 95 65 46 73 60 84 59 76 88 57 51 53 100 130 121 83 97 61 51 
91 99 65 41 87 56 51 67 107 62 43 66 45 72 126 104 81 83 54 126 90 110 75 58 
58 69 58 59 73 75 60 50 53 59 86 90 76 64 67 170 141 144 139 143 135 104 106 
102 100 64 71 78 87 97 101 104 93 88 82 105 211 215 214 212 207 203 199 195 
194 186 181 169 170 158 159 166 135 123 117 102 227 225 223 222 222 220 216 
212 212 211 212 209 206 206 205 203 199 193 185 177 
