P2
20 16
255
245 245 229 212 182 120 83 86 84 40 149 164 130 73 122 139 97 109 106 105 243 
243 236 211 181 107 83 80 70 53 145 140 126 77 122 136 90 110 109 100 240 245 
240 215 176 100 83 73 60 72 157 128 75 60 105 119 105 115 109 103 243 245 244 
220 181 90 82 95 61 79 132 124 81 55 124 103 113 114 108 99 243 245 248 225 
182 89 85 99 52 111 121 106 83 80 139 101 114 113 109 99 238 243 245 231 191 
90 86 101 76 85 117 106 81 90 142 104 113 114 109 98 240 237 240 229 196 99 101 
110 82 140 104 76 105 134 124 113 113 112 106 102 238 227 234 231 173 87 86 76 
73 140 149 101 76 125 104 115 115 106 106 101 234 220 232 225 115 96 82 73 110 
141 102 116 62 131 106 113 111 103 103 104 223 217 233 217 99 90 105 99 134 
153 141 79 119 122 106 110 107 101 102 103 219 215 230 185 96 89 86 84 164 117 
162 107 120 97 116 111 103 101 108 99 225 221 227 155 93 86 81 83 160 105 138 
116 127 96 114 113 102 106 110 101 235 226 226 137 96 87 83 90 147 106 145 117 
114 100 113 112 105 114 106 135 244 227 214 120 87 81 78 88 123 97 126 103 109 
115 114 108 109 114 106 165 247 223 205 110 85 80 81 123 111 79 85 106 110 116 
113 105 119 108 143 176 248 217 194 106 83 90 87 131 88 83 47 88 92 115 108 
111 117 129 173 177 
