P2
20 16
255
107 98 102 102 104 110 119 104 103 101 101 125 103 101 103 104 103 100 93 101 
96 96 95 96 97 103 122 96 107 113 107 127 112 104 104 105 102 100 87 88 95 97 
96 98 103 114 132 88 101 102 102 130 145 129 129 126 132 138 115 100 97 98 93 
96 98 97 120 87 101 90 86 119 113 82 66 68 64 73 66 66 87 91 96 97 101 104 124 
80 75 51 54 100 77 76 112 69 47 43 45 48 136 142 146 142 152 160 149 117 149 
102 105 138 109 104 97 110 84 74 70 88 139 195 190 195 199 197 163 164 164 151 
121 145 173 81 100 193 181 186 173 195 112 128 128 130 134 124 111 193 199 86 
184 163 203 38 105 169 134 134 128 150 99 130 104 102 110 171 120 163 136 106 
169 166 162 55 108 165 122 119 141 159 104 114 88 119 136 184 168 128 105 91 
112 141 102 51 102 171 143 109 182 98 145 177 157 152 140 135 118 112 149 131 
137 114 94 48 93 105 131 102 129 56 130 132 131 124 114 114 77 70 88 72 132 
111 124 103 189 108 81 98 113 93 117 109 129 139 142 127 117 127 138 64 67 90 
84 76 78 29 33 40 49 36 65 92 97 125 132 126 126 145 132 115 81 75 104 111 158 
107 117 97 139 86 112 132 118 115 119 127 127 129 141 147 152 145 161 162 155 
159 171 164 141 145 107 104 86 85 82 75 76 82 93 89 110 125 109 135 137 148 
148 149 126 134 
