P2
20 16
255
115 114 57 100 204 118 83 97 113 140 91 104 135 74 148 131 85 109 62 76 98 88 
69 143 135 106 93 117 151 84 120 112 126 108 90 153 134 117 74 67 110 121 111 
72 71 106 108 154 124 51 123 138 159 92 91 128 120 94 74 69 68 57 76 62 74 81 
139 119 112 97 152 162 120 66 93 70 103 72 121 94 82 95 130 57 78 81 107 112 
136 140 153 117 100 109 90 157 152 29 88 109 123 159 74 113 100 100 156 111 
112 138 127 113 128 142 143 159 149 29 81 102 141 136 72 130 121 173 211 197 
167 105 102 99 119 99 142 163 162 35 55 70 114 97 110 106 109 200 137 170 214 
159 136 125 132 68 120 140 146 56 31 93 113 111 175 90 91 174 165 188 148 131 
85 134 140 127 161 154 163 130 38 117 97 110 114 46 84 113 95 157 181 142 155 
106 134 163 147 122 134 152 68 87 113 122 140 77 54 92 86 106 128 112 45 81 119 
76 51 98 116 143 83 55 94 81 103 132 77 74 49 120 96 91 127 124 120 99 86 84 
136 143 93 68 149 71 89 96 131 103 111 150 140 147 188 183 163 136 103 115 127 
132 148 172 136 96 109 132 137 117 91 115 129 145 159 151 147 129 91 97 98 130 
153 189 88 88 91 85 93 75 76 54 81 99 120 130 129 103 119 131 131 151 200 72 
77 93 115 86 80 65 66 131 80 100 106 104 117 137 110 115 125 214 93 57 
