P2
20 16
255
164 167 158 163 154 151 151 137 125 115 114 118 108 86 85 132 150 153 123 104 
109 159 178 156 124 122 130 152 130 111 129 109 101 94 64 77 119 121 135 100 
131 155 162 139 128 125 150 129 155 132 117 126 136 105 71 53 131 159 149 137 
140 107 188 111 126 127 127 155 125 118 126 136 141 122 79 55 103 160 154 147 
110 86 144 122 120 155 90 170 118 126 130 120 134 116 101 71 61 99 158 183 148 
154 124 92 111 140 142 159 130 146 169 104 95 99 157 106 67 69 97 180 90 85 81 
95 89 108 120 131 143 135 134 159 79 100 137 144 90 65 74 110 89 111 92 139 
89 91 162 158 134 130 131 114 164 107 104 141 114 88 95 83 118 97 117 152 100 
149 164 192 208 159 120 186 160 137 87 119 135 102 51 64 129 157 76 146 148 
112 131 176 164 157 164 111 82 113 131 101 138 103 57 44 118 144 95 97 118 127 
124 117 149 167 142 74 120 98 139 111 70 87 66 62 111 146 143 106 97 114 162 
76 100 123 98 102 152 157 121 99 65 59 68 79 177 102 117 93 101 121 108 117 
64 73 93 136 172 168 124 123 77 65 101 112 106 91 122 106 100 86 125 126 135 
101 106 152 139 144 118 95 81 74 99 151 95 90 96 135 87 104 100 100 95 116 152 
111 74 85 108 96 88 74 137 154 130 126 122 105 123 115 164 137 101 131 131 94 
83 105 83 91 82 113 149 145 
