P2
20 16
255
101 122 184 127 173 124 116 166 152 143 156 130 135 136 117 60 67 68 249 253 
123 106 140 162 182 146 111 159 127 139 138 151 132 131 128 104 84 162 253 253 
163 145 99 124 93 104 147 125 128 147 145 146 126 130 128 103 147 92 188 249 
174 108 94 74 95 106 93 104 133 130 147 137 131 123 138 103 172 156 93 155 134 
95 140 100 161 112 107 114 129 125 164 133 128 131 119 94 153 166 145 90 85 79 
142 138 154 106 155 103 113 147 158 114 129 120 117 91 133 173 138 127 77 117 
106 125 148 83 169 120 146 137 141 151 128 146 132 74 112 171 135 111 99 156 
163 140 144 102 137 125 177 184 123 150 127 132 117 76 94 131 118 101 111 145 
98 100 118 106 115 125 158 193 147 136 121 104 114 66 139 147 123 110 113 138 
112 84 119 98 123 154 153 171 125 125 137 104 151 72 129 173 141 124 104 120 
126 121 124 100 103 111 117 155 156 178 161 106 148 82 106 163 164 130 108 130 
130 117 124 92 117 132 91 127 102 101 121 108 145 83 91 187 160 137 94 137 124 
122 139 142 102 124 84 85 107 118 122 101 132 98 110 160 161 153 51 95 142 106 
146 147 122 102 116 122 151 163 139 127 139 80 85 97 120 104 118 76 142 101 
125 116 176 110 150 141 159 159 96 92 93 60 73 84 83 93 136 149 123 121 135 
125 143 95 112 86 105 132 123 72 69 63 73 81 110 147 
