P2
20 16
255
135 164 156 165 148 154 155 151 124 143 154 120 118 92 84 106 68 71 78 64 85 
109 112 164 161 153 107 105 101 117 131 131 120 96 90 118 108 87 75 91 98 108 
152 158 116 117 130 108 132 130 101 133 141 106 78 68 104 141 121 77 150 80 145 
179 80 96 154 75 128 156 109 101 92 91 112 120 121 113 87 90 94 57 139 113 102 
127 150 51 136 163 79 97 146 111 74 116 120 96 96 72 136 135 86 75 100 130 116 
134 151 135 112 127 153 153 47 75 81 67 135 138 63 61 85 48 82 105 106 125 133 
127 117 127 142 171 78 50 86 79 140 153 88 68 131 72 66 113 159 117 123 105 
109 117 88 131 152 68 104 73 116 134 103 134 128 89 136 155 198 214 198 145 
107 121 149 175 161 151 46 99 118 127 84 152 140 88 114 160 159 156 162 133 
139 133 138 70 104 138 87 79 77 144 74 111 91 126 108 99 186 122 198 137 86 85 
104 84 90 143 91 133 130 81 94 92 103 165 68 85 99 109 121 114 92 119 131 109 
111 127 81 81 58 83 105 93 87 127 112 45 72 62 91 109 112 168 183 146 94 98 110 
58 69 74 77 61 116 115 124 127 79 82 114 151 154 163 149 133 111 104 83 66 123 
162 107 118 96 84 84 96 131 128 104 97 108 117 115 90 98 90 87 210 253 253 100 
167 164 137 99 120 134 110 75 79 52 96 108 89 96 119 231 253 253 253 
