P2
20 13
255
87 45 33 37 83 65 41 57 84 70 22 87 21 5 11 17 62 126 125 119 89 38 25 51 113 
62 28 56 39 46 6 78 20 2 9 17 53 146 160 128 77 37 31 55 101 67 13 58 21 51 7 
79 26 6 12 21 53 101 104 103 22 27 23 40 108 72 25 80 28 25 22 32 38 19 18 32 
65 93 91 87 16 20 25 35 37 22 34 23 23 24 26 22 33 25 26 26 80 111 96 110 24 
22 22 19 17 19 23 24 23 22 25 27 33 29 42 27 78 50 75 72 40 37 26 26 19 18 53 
42 18 13 19 34 50 32 28 38 52 88 72 63 21 20 17 20 26 15 25 29 21 9 9 16 16 14 
14 16 17 41 46 38 54 55 55 53 66 65 16 4 10 8 11 16 8 5 4 4 6 26 30 19 34 28 
23 21 18 15 10 6 5 3 3 3 4 4 4 6 13 22 28 29 3 15 22 25 31 39 30 5 2 3 2 4 9 16 
21 25 24 26 24 22 35 35 30 25 19 14 13 10 10 12 14 17 19 20 21 24 25 23 22 21 
14 11 8 5 3 4 9 17 18 18 19 20 21 21 21 22 22 21 21 21 
