P2
20 14
255
123 162 146 78 144 186 168 133 151 131 111 101 107 127 147 127 128 120 109 93 
121 144 158 90 148 161 171 128 148 137 122 115 120 122 144 118 144 120 112 95 
89 128 149 111 126 140 144 114 143 124 117 113 137 131 139 119 114 134 112 109 
170 146 116 122 150 153 130 110 112 115 94 119 130 110 146 133 114 118 118 111 
211 190 137 139 165 151 138 119 123 122 103 93 94 107 123 127 124 133 117 101 
227 184 144 140 164 140 169 141 115 128 122 112 104 109 121 108 108 128 117 
115 224 179 160 165 155 147 149 123 127 138 136 136 119 110 107 114 111 106 
100 93 180 188 146 139 159 182 184 157 146 139 143 129 115 112 98 113 114 117 
107 104 191 180 131 149 207 190 170 157 150 140 137 130 126 125 119 123 114 
146 115 115 152 149 131 150 192 181 164 179 137 170 160 152 131 142 144 159 
239 223 134 105 119 190 143 150 171 173 199 175 135 156 187 156 163 179 161 
150 208 245 146 107 124 203 151 165 196 159 187 202 140 239 249 184 187 191 
174 178 175 170 126 125 155 203 149 177 204 182 229 247 144 231 218 162 187 
186 168 158 163 174 159 163 175 199 141 186 239 236 216 185 140 157 163 161 
148 139 134 144 141 141 141 137 
