P2
20 14
255
120 144 141 86 118 144 156 143 128 136 113 108 122 152 132 148 129 121 115 100 
112 139 151 108 101 144 145 152 122 141 111 132 128 125 121 123 137 128 110 
100 104 102 148 114 116 133 126 126 125 117 121 125 108 142 140 111 105 125 
111 115 139 132 124 116 133 130 130 120 100 119 98 101 97 108 134 125 114 120 
115 118 178 204 158 109 155 134 134 124 101 112 102 91 89 101 115 123 118 129 
110 101 221 183 157 118 153 140 149 155 112 115 121 115 100 97 118 108 104 121 
123 112 189 180 170 133 168 135 141 134 115 122 131 139 122 107 109 104 112 
109 100 97 172 173 174 103 156 146 186 151 134 133 144 127 119 110 97 101 113 
107 104 105 156 184 169 106 181 196 160 162 139 146 137 122 130 119 121 116 
110 126 121 108 188 142 139 120 172 182 162 171 138 157 156 138 138 134 129 
140 196 235 138 102 151 129 176 116 170 165 180 179 136 145 166 157 156 165 
156 134 189 245 175 99 168 133 205 115 183 166 170 176 152 176 236 176 225 170 
169 164 175 180 135 116 201 134 224 116 209 171 186 214 200 176 234 161 174 
176 168 158 161 173 162 160 212 134 215 110 229 219 219 204 159 140 176 169 
160 146 138 136 141 144 139 135 
