P2
20 14
255
122 159 139 76 135 159 167 132 142 137 112 102 106 137 155 137 129 120 118 93 
116 142 162 98 117 153 162 147 131 142 108 103 113 122 149 126 141 125 112 94 
94 113 157 107 122 138 131 126 133 123 125 123 144 122 137 115 110 129 112 114 
135 132 131 117 137 138 134 119 108 124 98 113 115 110 143 134 116 122 117 116 
190 203 151 107 162 137 132 123 108 116 101 92 90 105 118 132 118 131 111 100 
228 179 156 122 155 141 160 151 112 121 124 110 98 99 122 108 108 124 127 113 
203 180 171 138 169 137 143 136 115 125 133 140 123 109 111 103 113 111 101 
92 183 173 172 112 159 155 188 153 130 139 145 129 118 109 97 106 114 107 103 
104 158 189 163 119 188 191 169 159 144 143 137 124 126 121 119 120 110 132 
117 110 188 154 136 129 183 184 160 180 134 161 158 137 135 132 126 145 198 
220 137 102 137 147 164 130 171 167 187 182 134 154 172 156 155 163 151 150 
196 249 168 102 148 152 182 130 185 163 180 180 143 191 239 176 213 186 172 
167 187 191 129 108 187 159 205 134 219 168 197 217 178 201 233 150 176 170 
167 156 160 173 157 169 205 153 192 136 232 217 227 209 152 149 185 175 162 
156 143 140 140 141 136 133 
