P2
20 14
255
144 174 127 100 149 192 184 123 156 125 113 113 147 119 141 137 133 116 106 
88 152 172 154 88 154 177 190 128 153 133 121 128 127 118 116 119 146 116 110 
90 105 173 147 110 135 150 146 131 138 119 126 108 125 133 122 116 112 132 110 
110 154 137 131 126 150 167 143 104 125 115 94 105 102 122 131 123 114 117 118 
111 243 183 126 137 172 159 134 108 123 123 97 89 93 106 121 121 122 135 121 
98 236 200 132 139 163 150 173 136 127 134 120 109 101 106 118 106 106 133 113 
114 231 189 150 185 154 151 154 120 128 140 137 137 119 112 109 111 111 106 
99 90 212 195 139 150 158 194 183 156 147 142 146 127 114 110 97 111 115 115 
107 104 202 207 130 159 215 187 181 152 155 139 135 128 124 123 119 122 110 
149 117 116 179 162 131 154 202 185 170 178 136 170 161 147 130 137 140 155 
235 239 138 104 116 186 127 157 171 176 207 179 134 171 192 162 158 175 168 
161 207 252 167 101 110 209 135 165 194 178 216 208 136 225 251 191 205 207 
193 189 182 178 129 120 139 214 154 192 225 178 227 249 148 239 234 151 184 
179 169 158 159 176 158 164 162 208 139 195 240 242 234 210 141 168 182 179 
164 157 137 142 138 138 136 135 
