P2
20 14
255
140 164 119 103 147 196 177 118 153 126 110 103 120 149 134 138 133 113 106 
93 142 166 145 89 157 163 188 125 150 132 114 123 127 130 120 124 152 115 110 
91 98 167 140 114 133 145 142 131 132 116 132 133 103 148 129 112 119 127 114 
110 156 130 128 130 143 156 142 101 130 109 100 104 110 128 137 123 116 119 
118 115 234 188 121 144 154 156 136 108 126 114 95 88 95 113 125 123 119 135 
118 98 223 179 130 146 157 156 172 122 125 135 118 108 97 111 121 107 117 130 
117 115 218 186 150 180 146 150 147 121 131 138 140 132 116 110 109 115 110 
106 97 89 202 192 125 151 148 204 177 151 146 144 136 127 114 104 97 115 112 
112 105 101 194 190 121 166 217 187 179 148 158 139 131 129 121 125 120 117 
115 145 112 116 164 159 122 161 202 176 169 169 146 164 159 153 132 133 148 
157 237 207 125 104 114 195 127 167 169 178 207 163 136 171 177 169 160 174 
159 160 217 239 143 112 113 219 127 176 190 181 208 193 144 226 236 203 193 
205 178 184 187 172 120 120 130 227 135 203 222 179 226 246 140 246 214 162 
182 176 169 164 161 176 157 166 150 220 120 212 237 234 228 202 132 178 180 
175 159 161 133 140 141 138 138 134 
