P2
20 14
255
118 139 139 70 128 169 157 120 144 128 112 110 109 147 131 143 133 123 134 96 
112 140 149 84 125 150 159 130 136 133 108 133 126 129 131 134 140 116 105 93 
85 134 144 107 122 136 129 116 134 115 129 130 116 150 126 113 131 123 115 101 
175 135 122 121 141 141 129 102 118 116 96 105 101 133 139 122 114 132 113 111 
197 176 128 136 153 138 123 109 117 109 94 92 103 113 128 124 110 113 114 108 
206 170 133 138 149 144 161 125 118 127 112 101 90 111 122 108 124 131 115 103 
207 160 150 157 138 142 139 119 122 128 134 124 115 114 110 111 116 114 103 
104 172 180 128 139 148 180 162 138 137 145 135 132 113 99 100 111 102 101 102 
87 187 167 118 157 198 169 167 143 153 137 124 131 121 118 109 114 119 119 110 
107 129 150 117 158 181 168 172 157 149 159 140 141 130 120 134 142 186 155 
108 116 118 199 116 157 169 179 189 147 143 159 159 161 149 151 151 194 243 
189 112 114 125 217 117 183 166 164 186 162 154 226 193 220 189 154 154 175 
221 172 98 139 131 225 112 200 167 197 215 217 164 237 170 176 165 181 164 156 
160 152 146 153 132 216 106 216 223 226 205 168 132 187 178 168 157 159 148 
144 154 150 147 129 
