P2
20 16
255
118 118 119 120 123 124 127 128 128 128 128 128 129 130 130 132 133 134 134 
133 124 126 128 128 128 128 130 132 133 136 137 138 138 138 138 141 138 138 
138 138 128 128 129 132 135 137 138 138 141 152 164 154 128 130 137 128 124 
133 119 106 134 137 138 138 138 125 120 128 170 174 165 180 173 173 107 93 120 
126 174 206 138 138 139 134 136 160 162 169 177 178 170 173 178 158 39 35 95 
149 198 159 114 124 81 122 137 160 157 183 156 134 98 152 163 126 31 31 72 150 
152 161 198 176 36 127 132 157 149 125 116 124 117 150 126 85 23 26 34 91 74 
163 186 109 30 48 126 113 144 70 116 162 159 171 138 107 32 30 33 50 42 64 116 
82 30 25 88 109 164 152 153 159 170 180 175 132 30 33 38 43 51 42 159 113 27 
18 140 167 162 166 148 110 172 172 103 79 30 37 49 50 56 48 144 59 36 30 92 115 
145 164 146 61 154 148 32 31 44 50 40 46 52 53 34 39 33 34 44 47 128 136 102 
128 81 105 64 46 52 42 38 42 47 41 30 36 40 33 39 61 78 69 84 118 114 68 42 31 
44 38 41 35 48 50 40 37 38 36 51 52 46 37 127 121 61 42 42 51 45 34 32 32 28 
51 31 42 47 38 33 28 32 64 139 61 44 39 48 57 49 39 33 38 34 49 46 51 47 44 39 
26 50 142 93 25 34 36 48 48 46 35 36 60 63 46 
