P2
20 16
255
118 119 121 121 122 123 125 126 126 127 129 130 130 131 131 131 132 132 133 
132 123 124 125 127 128 129 130 131 133 137 135 136 136 137 137 142 138 139 
139 139 128 130 130 132 134 136 137 138 142 152 165 154 129 131 137 128 123 
131 118 107 133 135 136 138 139 125 120 129 170 176 166 179 174 173 106 93 120 
126 175 206 138 138 141 137 136 159 163 169 177 179 170 174 179 159 38 35 96 
149 199 158 116 125 81 122 137 161 157 183 156 135 98 153 164 125 30 30 72 151 
152 160 198 174 35 127 133 157 149 124 117 123 116 150 126 86 23 26 33 91 73 
164 186 109 30 48 127 114 143 70 116 162 159 170 138 107 31 29 34 51 43 64 116 
83 30 26 88 109 165 153 153 157 169 180 175 132 29 34 37 43 51 43 158 112 28 
18 140 167 162 166 147 110 172 173 103 79 32 36 49 51 57 49 145 59 36 29 91 114 
145 163 145 61 156 148 31 31 44 50 39 44 53 53 35 39 34 33 44 45 129 135 103 
128 80 106 62 45 52 42 38 42 45 42 29 36 41 33 40 62 78 70 84 118 114 67 41 31 
44 38 40 35 48 49 41 37 38 36 50 52 48 37 127 120 61 43 40 52 44 33 33 33 28 
51 30 43 46 39 32 28 32 65 139 60 45 39 47 57 49 38 33 38 35 50 48 51 47 45 39 
26 50 142 94 25 33 37 48 48 46 35 36 60 63 46 
