P2
20 15
255
22 25 51 60 80 87 96 91 92 85 107 111 107 108 121 102 68 59 106 116 139 115 
95 97 109 110 116 92 122 126 124 106 116 118 123 91 73 99 120 116 155 136 130 
131 139 139 140 124 128 145 137 125 117 122 121 106 71 89 112 114 167 158 137 
141 141 131 143 142 136 131 140 137 129 118 108 109 72 84 108 111 160 160 137 
141 141 136 142 138 136 139 128 137 124 116 112 92 72 83 121 122 167 167 148 
141 152 142 142 143 136 149 141 138 134 129 122 95 66 81 108 123 154 168 147 
150 147 137 140 141 136 141 129 125 129 126 122 97 67 79 122 117 156 163 146 
139 155 147 153 138 129 136 142 123 128 140 128 107 75 76 109 123 155 168 151 
138 140 140 147 144 138 130 124 132 125 123 115 101 68 76 116 112 140 158 146 
148 141 138 139 139 131 135 128 124 126 120 119 98 62 73 106 115 148 165 137 
140 145 142 136 142 141 132 138 131 132 135 132 98 73 77 103 116 140 169 145 
146 154 155 153 140 139 140 132 118 117 128 120 103 72 72 107 112 140 165 129 
138 145 151 148 147 149 159 142 122 127 127 125 108 69 73 100 124 139 160 131 
141 133 137 133 138 128 142 131 138 138 129 111 101 65 74 100 104 131 159 130 
138 136 131 121 127 122 129 126 132 127 131 113 99 63 69 108 113 
