P2
20 15
255
134 97 93 98 108 110 113 95 104 127 119 126 105 113 117 128 97 73 59 132 156 
121 129 128 140 137 140 125 130 126 144 135 125 117 121 121 116 78 56 111 174 
141 136 139 139 130 139 138 139 131 133 139 136 128 119 109 112 81 57 101 180 
128 143 137 137 132 139 136 137 134 134 128 137 125 116 114 101 76 58 105 186 
144 145 140 153 143 141 143 134 141 145 138 137 134 130 125 104 70 53 99 182 
148 149 144 144 134 138 139 134 140 139 124 123 126 122 124 102 70 51 98 176 
147 144 136 154 143 154 143 129 130 137 139 124 127 139 126 117 82 56 98 181 
148 138 138 140 135 145 150 130 141 128 123 131 124 127 117 111 76 52 95 174 
144 144 147 139 136 137 138 138 124 133 130 124 127 124 124 105 67 53 92 171 
133 135 142 143 136 142 134 138 144 128 137 127 129 133 133 112 76 54 91 174 
140 145 144 154 151 153 143 137 147 136 131 119 118 131 124 110 80 51 89 174 
136 125 139 142 151 150 146 142 156 151 140 126 128 122 121 111 77 53 96 163 
133 136 140 134 136 134 132 135 134 136 129 131 134 139 115 105 69 51 93 149 
142 128 136 134 129 122 122 126 120 127 124 134 122 120 115 104 80 52 86 157 
157 137 137 131 127 126 129 131 123 120 127 119 125 124 103 93 71 52 83 
