P2
20 15
255
92 107 102 95 101 93 107 120 112 125 118 118 134 91 74 141 114 134 138 113 148 
109 115 131 129 134 110 132 144 124 134 131 123 103 69 119 113 118 125 108 171 
149 141 140 141 144 138 144 148 134 124 119 115 114 85 115 118 117 120 112 166 
161 143 145 137 144 147 136 137 139 131 121 115 99 72 118 119 124 111 114 166 
161 144 147 145 151 150 148 148 148 137 129 126 97 72 111 123 133 125 110 172 
172 154 154 152 145 144 143 149 139 145 135 126 99 72 107 110 124 117 109 156 
170 152 157 144 149 146 142 145 131 125 131 129 98 68 109 122 123 122 117 159 
167 150 147 153 157 143 137 143 133 133 142 129 112 76 104 122 129 116 107 161 
171 156 152 145 152 146 146 135 130 135 132 122 107 70 109 122 118 129 115 143 
162 150 153 148 148 150 136 139 136 128 130 125 105 65 98 118 117 114 99 149 
170 148 153 148 147 147 148 137 141 138 142 139 103 74 99 114 119 116 116 147 
174 146 156 164 160 149 149 142 129 126 129 131 112 77 100 121 119 115 108 142 
170 140 145 159 157 154 162 158 138 129 132 132 116 74 94 117 123 125 108 138 
166 140 144 139 142 146 141 144 143 149 139 122 107 70 98 110 125 128 117 135 
166 141 147 143 132 133 134 136 139 136 140 126 108 68 99 102 114 115 105 
