P2
20 13
255
119 113 104 101 112 126 128 117 107 120 109 109 99 79 97 82 97 91 78 66 121 
116 109 98 115 116 123 118 114 115 121 117 113 118 115 102 88 82 78 64 121 114 
130 119 112 127 135 137 127 122 122 114 108 109 101 87 75 83 81 56 125 127 109 
136 138 114 133 119 142 130 119 114 118 107 104 89 78 80 82 86 127 115 138 158 
128 104 106 123 143 157 149 134 118 111 107 94 88 96 98 79 125 126 127 120 113 
94 108 128 143 146 144 130 126 137 129 94 71 77 82 83 120 119 105 91 99 111 
123 129 158 154 156 139 120 123 114 114 98 93 77 96 119 124 126 90 117 119 119 
124 138 152 147 132 107 100 102 98 103 88 76 96 107 109 112 104 110 112 112 
124 134 135 127 115 102 103 83 96 89 99 79 91 108 112 118 103 104 127 119 118 
121 118 117 109 107 94 75 85 88 79 81 69 109 114 112 105 104 115 111 108 111 
109 112 108 104 87 88 94 75 60 62 65 111 103 99 105 90 108 110 120 135 129 124 
124 120 98 85 102 68 64 68 71 104 94 95 98 91 108 133 128 121 115 103 103 105 
103 97 87 85 71 73 72 
