P2
20 13
255
118 145 130 108 112 120 117 131 118 134 140 133 139 130 144 133 120 133 121 
114 117 135 136 110 114 123 121 137 153 142 164 165 135 151 146 140 137 124 
124 99 115 123 134 104 119 124 116 137 166 141 151 168 134 145 157 131 123 122 
113 112 110 112 134 113 107 119 110 133 140 151 148 157 139 167 149 128 122 
122 117 129 105 99 132 120 109 123 110 131 148 160 150 156 142 152 132 123 121 
121 123 123 100 106 127 116 113 113 104 117 146 150 147 137 139 137 126 117 
109 109 124 115 101 107 126 113 100 111 99 116 120 112 130 119 130 125 136 122 
102 124 119 100 103 112 124 123 95 105 107 102 104 112 121 122 124 116 125 112 
114 110 123 98 99 115 107 101 82 99 105 114 104 101 121 144 142 101 123 115 
109 103 130 100 101 104 89 85 88 89 89 95 99 101 118 123 136 116 107 99 103 
110 121 104 98 77 93 93 84 69 86 83 100 111 110 113 135 117 92 107 121 101 123 
107 96 83 83 84 86 84 86 81 77 101 117 116 117 114 94 88 64 97 113 93 87 89 112 
113 82 78 103 104 95 108 117 92 83 94 83 96 82 94 111 85 
