P2
20 13
255
84 90 90 93 103 116 131 143 144 146 158 147 128 121 124 116 101 86 94 96 80 95 
87 95 108 118 118 127 135 141 147 139 130 134 126 122 116 113 132 115 78 80 99 
107 117 122 131 128 124 123 137 144 144 136 126 123 118 134 120 113 88 93 100 
113 121 124 121 142 157 153 143 146 144 137 115 111 119 135 124 106 95 92 110 
117 123 125 140 162 160 152 153 146 145 136 130 116 113 124 110 109 110 109 
118 119 124 125 130 143 152 138 139 148 156 150 124 119 122 94 96 96 113 115 
113 119 120 122 128 134 124 140 143 132 142 137 108 110 97 97 95 86 100 107 
116 113 108 131 112 128 145 147 135 122 148 143 125 102 93 93 89 89 104 106 
107 114 123 119 122 149 135 150 142 133 136 118 129 110 97 104 104 75 95 94 94 
91 109 118 118 125 139 125 120 124 107 106 97 90 94 95 96 80 108 109 102 107 
110 109 112 116 116 111 106 107 105 101 97 100 101 96 95 74 112 118 108 109 
110 113 114 115 116 110 113 120 117 110 106 96 92 91 87 76 97 115 112 106 108 
108 111 113 117 114 107 115 95 111 101 89 89 74 76 74 
