P2
20 14
255
136 138 143 139 165 148 131 119 105 97 96 87 82 83 83 83 81 82 76 69 154 166 
162 129 105 90 100 102 90 93 91 89 80 89 96 101 103 102 81 62 122 111 102 82 
84 92 108 104 93 101 105 114 103 107 111 120 124 116 87 66 83 85 90 77 76 115 
135 134 117 97 99 90 126 144 134 129 134 102 88 69 75 79 83 70 67 117 151 166 
136 111 102 92 145 172 148 148 169 153 92 74 79 77 83 73 65 111 121 148 81 106 
141 107 154 178 158 146 172 173 97 62 86 86 80 76 53 103 95 126 91 84 96 89 126 
161 152 134 149 154 89 79 85 77 73 70 50 68 130 131 87 88 99 70 62 88 140 139 
109 126 71 51 96 95 69 49 69 59 88 60 74 88 60 51 54 97 132 123 86 98 62 52 94 
94 75 40 89 57 52 67 107 63 43 66 46 70 128 106 81 85 55 121 88 114 76 60 57 
69 58 59 73 74 62 51 52 59 87 91 77 65 67 168 141 143 139 144 137 106 105 103 
102 65 71 78 87 97 102 105 94 89 83 105 213 217 217 214 209 205 201 197 196 
187 182 171 171 160 160 168 137 124 118 103 230 228 226 225 224 222 218 215 
214 213 215 211 208 208 207 205 201 195 187 179 
