P2
20 14
255
136 140 141 118 153 175 177 175 163 135 125 114 92 85 83 82 80 76 70 60 132 
136 149 150 158 134 121 117 102 97 95 87 82 84 85 83 84 84 81 65 153 159 145 
112 98 88 104 107 94 90 89 89 83 96 101 105 104 100 78 65 96 95 93 76 79 94 114 
115 101 104 105 114 107 118 115 123 128 106 86 67 73 76 84 73 71 117 143 141 
120 99 101 93 134 145 137 132 122 104 87 65 76 79 83 72 63 109 140 167 119 114 
111 101 159 181 145 151 170 145 87 68 78 79 83 74 62 111 96 148 68 97 137 100 
164 179 148 147 171 158 84 53 86 85 73 73 48 96 97 135 74 89 93 83 112 151 139 
143 143 132 67 68 90 85 67 59 47 61 125 102 72 76 90 57 53 103 138 138 90 105 
60 46 93 87 64 38 79 49 54 59 76 87 44 55 45 113 125 103 76 94 53 59 94 97 65 
44 61 57 45 53 80 51 43 62 42 78 118 94 89 68 59 160 91 106 84 89 83 69 70 66 
75 79 62 53 64 66 78 87 77 69 83 164 190 191 190 184 174 154 150 143 137 98 104 
108 118 121 130 125 94 92 84 111 223 225 222 221 218 214 212 211 210 209 206 
199 194 180 179 179 163 155 143 118 
