P2
20 16
255
227 220 218 205 188 199 222 225 236 219 201 160 85 66 59 41 130 151 142 54 228 
228 224 218 208 221 222 236 228 209 168 84 64 59 33 112 141 151 86 109 232 233 
223 215 212 213 230 236 212 171 81 61 59 35 109 124 124 75 112 138 237 237 229 
219 210 205 237 217 165 80 59 60 37 110 139 130 88 99 125 126 235 241 241 235 
219 220 227 185 89 60 60 39 105 140 120 117 113 120 112 115 236 240 239 231 
216 223 189 123 75 71 51 96 115 100 97 121 119 113 121 115 225 224 226 228 210 
213 110 72 70 79 94 133 109 62 106 128 110 113 113 97 214 227 228 219 199 115 
73 82 69 111 151 95 69 124 119 114 114 105 98 92 221 237 232 194 117 77 65 67 
126 160 129 101 134 132 117 115 107 100 98 96 229 233 212 142 73 65 62 127 141 
165 107 124 125 119 114 108 97 97 101 102 229 223 177 92 70 69 112 128 142 128 
135 111 116 110 106 99 98 100 95 109 199 186 177 70 66 117 108 89 131 116 112 
116 106 101 100 101 97 108 139 166 165 184 102 69 114 98 70 73 109 118 116 108 
101 103 99 108 140 168 172 176 177 146 68 113 98 95 101 108 116 113 107 110 
106 108 141 169 174 172 171 171 181 82 105 115 90 98 109 117 109 109 114 120 
140 171 172 170 173 174 170 169 98 95 83 75 74 115 117 109 110 123 149 169 172 
171 172 174 173 170 168 169 
