P2
20 16
255
225 225 229 240 235 225 199 116 100 96 94 90 89 76 47 52 130 188 196 195 219 
228 240 239 229 217 130 101 98 97 99 124 81 45 61 164 180 191 186 182 224 239 
237 227 210 131 108 107 96 100 117 64 41 62 152 186 123 180 180 113 238 229 
200 123 103 98 96 116 117 120 61 69 83 164 152 152 173 114 121 100 225 200 121 
106 108 98 103 99 122 87 97 96 176 135 118 157 54 91 65 93 169 115 103 100 111 
103 93 90 63 100 132 62 131 151 128 125 112 58 61 103 109 100 98 101 98 121 
92 75 64 125 162 124 76 127 121 116 47 69 102 138 104 96 95 92 99 98 118 96 159 
127 193 154 67 80 134 28 71 144 146 125 101 94 91 92 92 97 144 173 194 112 126 
125 106 117 100 89 151 161 118 102 90 93 96 88 96 153 188 110 159 119 111 153 
98 84 117 152 157 113 96 116 89 91 75 97 162 172 141 147 164 141 97 57 66 89 
154 138 108 106 121 115 89 82 74 157 154 125 101 133 150 89 111 126 126 145 
118 100 117 118 115 116 83 111 181 136 115 108 106 135 109 128 117 137 133 90 
110 119 117 117 114 112 125 178 116 88 96 121 154 141 144 123 136 97 94 115 
118 112 115 111 108 112 165 89 97 66 99 118 143 110 110 123 84 100 117 114 108 
112 109 102 105 105 110 87 83 80 54 133 91 83 122 82 114 114 114 108 109 104 
99 100 99 101 
