P2
20 16
255
151 138 122 118 114 116 107 104 104 104 121 102 103 106 104 99 86 95 104 102 
112 109 108 106 106 106 118 104 100 104 130 103 102 111 118 135 123 85 76 62 
114 103 105 106 110 112 122 99 111 105 126 135 130 123 83 68 59 46 49 44 109 
99 99 99 99 102 127 89 100 101 119 112 67 66 64 47 47 68 98 152 100 96 96 98 
102 113 128 90 87 63 66 97 69 126 94 117 149 153 197 199 99 101 101 95 100 101 
112 101 95 76 106 152 160 66 176 200 158 153 149 199 77 89 93 102 108 124 160 
167 165 167 131 155 187 41 133 154 116 126 148 151 62 103 146 168 196 209 193 
159 195 121 143 193 188 65 107 157 156 131 162 32 181 167 174 165 153 150 131 
121 176 151 114 157 135 67 82 128 125 123 139 79 130 121 129 142 121 113 154 
160 146 120 103 123 102 104 109 158 86 53 49 44 80 121 85 98 86 135 189 163 
126 119 118 150 107 139 102 72 34 72 102 108 73 110 134 165 160 135 94 97 87 
109 84 59 72 74 90 167 125 150 159 153 74 112 133 145 145 146 158 141 122 123 
131 96 104 127 164 160 172 174 162 133 46 124 150 137 102 112 133 125 140 147 
141 155 153 150 132 141 128 108 103 100 98 107 85 69 112 132 134 126 116 100 
110 88 100 104 103 113 115 116 121 127 94 119 132 117 132 94 87 92 97 106 116 
123 127 127 125 125 124 125 122 120 
