P2
20 16
255
222 231 244 249 248 244 235 226 234 241 242 242 246 243 244 247 248 250 249 
248 198 198 208 225 229 229 225 219 221 224 234 243 247 246 242 239 241 247 
248 246 227 215 201 193 195 206 218 229 239 240 237 240 236 226 219 217 221 
231 242 246 191 184 126 95 96 99 106 117 137 154 204 205 188 182 180 181 196 
206 226 236 90 87 85 86 90 87 94 93 93 99 93 101 92 91 94 103 118 138 165 192 
116 101 86 92 83 80 87 88 98 92 93 107 94 87 82 86 90 94 99 103 115 122 140 
145 142 130 131 124 121 80 77 89 77 80 71 85 92 84 93 101 78 84 70 93 80 105 
133 146 153 160 149 103 122 92 89 71 53 46 42 42 85 89 81 63 61 124 128 135 
150 113 148 82 139 132 151 184 193 186 165 141 109 102 102 98 99 109 113 123 
96 93 114 104 112 113 96 147 167 194 196 174 111 113 117 114 107 115 111 113 
121 120 96 101 61 68 75 110 122 167 166 144 114 113 108 109 114 116 115 113 
105 105 114 127 140 129 131 145 152 164 147 88 139 115 115 114 109 106 111 111 
110 111 116 114 108 107 119 123 127 147 167 163 177 171 149 120 116 114 107 
101 102 104 108 112 113 114 115 109 100 102 107 115 177 178 176 167 145 106 
109 109 102 102 105 107 109 109 111 108 108 114 118 107 175 178 178 178 175 
167 131 102 101 104 101 100 97 98 101 102 105 108 111 115 
