P2
20 16
255
100 61 134 112 102 156 85 95 123 148 133 121 174 175 154 159 70 49 41 247 58 
109 100 116 70 103 141 93 107 117 157 163 152 158 152 136 79 51 65 253 91 149 
152 107 107 125 140 148 134 109 123 135 135 145 139 134 84 56 90 253 117 108 
118 140 145 124 132 147 126 118 123 146 144 150 136 147 84 65 109 253 89 92 129 
143 132 158 138 119 152 120 140 131 144 146 139 141 92 75 126 253 99 117 136 
106 102 133 116 153 127 119 148 148 144 133 135 129 94 63 143 253 110 114 127 
97 118 109 111 128 151 149 158 134 137 129 137 114 108 151 241 253 118 126 127 
129 117 111 124 130 190 159 147 133 122 131 118 136 135 198 253 253 119 119 
126 118 93 119 149 151 181 132 154 134 146 118 100 175 128 180 239 240 124 114 
134 121 107 128 99 170 154 136 145 125 135 87 130 171 128 146 198 214 139 124 
128 138 109 113 114 165 150 132 110 117 101 81 163 150 131 111 166 199 98 119 
132 126 111 92 103 115 143 162 117 126 76 121 149 113 122 87 130 164 110 125 
164 117 116 95 110 114 109 121 145 88 141 154 117 121 137 87 102 159 77 70 119 
123 141 149 157 112 125 131 119 85 158 149 119 129 151 118 106 129 65 80 95 96 
89 136 160 126 122 120 87 133 181 148 137 120 126 118 112 137 54 78 111 80 75 
124 125 92 112 101 107 180 156 140 130 136 116 85 108 217 
