P2
20 16
255
77 42 37 77 87 144 109 120 185 100 141 116 148 137 108 80 120 96 93 48 80 88 
94 73 98 72 106 93 119 98 123 132 105 150 129 96 113 105 130 81 114 112 168 
75 101 67 90 81 106 144 140 104 142 112 145 110 124 101 121 106 112 134 109 
77 122 149 74 87 121 136 78 126 138 124 130 106 99 105 112 107 116 135 100 93 
160 104 113 71 114 138 139 168 124 118 149 96 109 96 131 103 117 95 101 94 119 
99 142 150 147 123 152 127 94 97 117 92 128 82 95 103 125 82 88 116 114 109 
130 189 202 136 130 127 127 162 88 108 113 97 85 87 96 79 94 100 163 106 135 
164 191 159 115 128 147 139 97 129 144 119 99 67 92 105 97 116 124 69 123 152 
176 132 125 102 159 110 81 129 111 116 72 50 116 149 98 101 136 53 104 135 167 
156 157 142 152 87 92 86 104 77 56 49 104 188 108 86 133 70 65 96 124 62 111 
147 161 102 99 130 153 97 46 41 130 165 153 99 110 104 96 130 100 117 113 82 
132 88 104 144 143 72 44 79 82 103 79 97 144 126 138 153 175 167 119 99 149 
77 120 145 119 69 46 80 54 73 102 96 94 85 70 120 160 164 124 132 100 119 123 
130 78 67 54 74 49 76 99 93 83 62 81 89 120 129 120 104 97 96 118 111 91 89 79 
115 73 82 119 86 74 56 120 90 106 96 97 86 58 59 100 79 49 51 86 83 
