P2
20 13
255
77 34 25 35 74 54 32 42 69 57 10 72 16 3 7 13 49 104 111 115 67 33 20 40 97 53 
18 47 22 41 4 61 17 2 6 13 40 116 130 114 58 32 22 41 84 59 10 54 13 44 6 57 
26 6 8 18 42 84 86 80 13 20 20 31 90 58 20 62 23 18 18 21 34 16 15 25 49 76 73 
72 13 13 18 25 22 15 26 16 18 18 20 17 24 19 22 18 65 92 76 87 24 23 19 13 13 
15 19 19 17 16 18 22 27 22 33 23 60 41 63 55 28 25 20 21 15 13 39 34 15 10 14 
24 36 25 20 26 36 76 60 54 16 16 17 19 26 14 18 19 17 9 7 13 10 8 9 12 12 29 
36 28 48 47 43 41 51 55 15 3 7 4 7 9 6 4 3 3 5 19 23 17 19 18 15 12 8 8 11 5 3 
2 2 2 4 5 4 6 11 18 21 21 6 16 21 25 28 32 21 3 2 2 2 4 8 13 17 20 19 20 18 17 
27 24 20 15 11 8 10 9 9 11 12 14 15 16 16 18 18 17 17 16 9 6 4 2 2 3 7 13 15 
14 15 16 16 16 16 17 17 16 16 16 
