P2
20 13
255
186 123 102 92 169 155 119 146 179 165 101 184 79 38 60 70 170 226 222 207 188 
106 89 132 208 144 94 132 124 109 32 178 72 17 47 70 154 238 241 219 168 96 104 
138 207 144 54 131 73 113 27 185 80 22 54 75 142 191 184 191 85 83 83 116 212 
150 78 161 85 92 77 111 109 57 64 106 169 209 206 202 56 73 83 105 119 89 101 
90 85 91 93 89 106 92 93 96 182 227 219 224 67 57 70 70 66 69 80 84 87 84 97 
90 104 102 120 90 179 130 141 171 123 118 84 84 69 72 141 116 66 57 72 116 143 
102 94 122 149 177 156 149 84 77 68 74 70 61 99 112 69 39 44 60 68 59 59 69 66 
132 135 125 125 131 138 138 165 135 31 21 49 26 48 62 34 22 23 27 33 93 96 69 
125 110 89 82 78 71 37 24 25 17 16 16 20 17 13 20 53 84 104 101 15 47 61 55 79 
104 77 20 12 12 12 15 36 61 76 85 85 93 90 84 95 107 106 96 80 67 52 33 36 41 
50 62 71 75 80 89 92 87 84 81 60 51 38 27 19 23 46 67 64 69 74 76 78 81 81 82 
82 81 80 79 
