P2
20 13
255
97 65 37 47 92 88 53 62 96 97 25 102 34 10 13 23 71 135 151 148 86 65 31 50 128 
90 36 69 34 71 9 81 37 5 10 23 60 150 181 162 72 58 39 55 120 94 17 71 13 75 
11 79 46 11 13 28 55 116 118 123 23 26 39 38 121 102 30 95 35 34 29 29 58 26 
23 43 67 113 111 106 19 19 35 38 48 27 41 31 30 32 34 29 41 33 35 34 80 135 
117 128 33 30 28 25 22 25 28 31 30 30 32 35 41 36 55 34 83 70 84 79 48 46 34 
33 27 23 60 57 26 16 24 40 63 44 36 47 61 104 91 81 27 26 23 25 36 19 31 37 30 
13 11 21 21 18 19 21 23 48 59 54 68 70 69 66 79 81 27 6 12 11 13 22 11 7 6 6 8 
31 39 26 40 34 29 26 21 19 13 9 6 4 4 4 6 6 5 7 15 27 37 39 4 19 29 33 39 49 
41 6 3 3 3 5 11 20 27 31 31 33 32 29 45 42 37 30 23 18 17 13 14 16 18 21 24 26 
27 31 33 30 29 27 17 13 9 6 3 6 12 22 23 23 25 26 27 27 27 28 28 27 27 26 
