P2
20 13
255
122 70 50 53 109 100 66 80 115 110 39 126 38 13 21 31 90 165 171 163 116 67 41 
69 151 97 48 81 55 76 12 107 39 5 16 31 78 185 202 179 97 65 49 75 140 103 21 
84 26 81 13 107 49 11 20 36 74 135 135 141 36 41 43 54 143 111 35 114 43 45 37 
44 68 32 29 56 89 134 131 127 25 27 45 50 68 41 53 41 40 42 44 38 55 44 45 45 
103 156 139 152 35 30 36 33 29 32 37 40 40 38 44 45 52 46 69 43 105 81 98 99 
65 64 43 42 32 32 78 67 32 23 31 54 81 55 46 63 77 126 107 97 37 34 30 30 41 
24 43 52 37 16 16 26 29 25 26 29 29 65 74 66 77 82 81 81 97 93 25 8 17 14 18 
31 15 9 8 9 11 42 49 34 60 49 40 38 33 30 17 11 9 6 5 5 8 7 6 8 21 36 49 50 5 
20 34 35 45 59 49 9 4 4 4 6 14 26 34 41 40 44 42 38 54 57 51 44 34 27 23 15 16 
19 22 27 31 34 36 41 43 40 38 36 24 19 14 10 6 8 17 29 29 30 32 34 35 36 36 37 
37 36 35 35 
