P2
20 13
255
144 86 63 63 125 119 82 98 133 132 60 148 49 21 30 42 109 194 191 180 138 79 
54 85 172 113 63 96 75 91 17 130 49 8 22 41 98 206 224 212 118 76 63 93 163 
119 28 99 36 93 16 132 58 13 27 45 90 157 154 150 48 53 53 70 166 128 44 132 
54 61 46 62 81 38 36 71 111 159 156 152 33 38 56 65 86 55 67 56 52 56 58 50 73 
58 59 61 124 179 172 175 43 36 44 43 38 42 48 52 53 51 60 57 67 62 86 57 132 
101 108 124 82 81 55 54 41 42 96 81 42 32 42 72 101 70 59 80 103 144 126 118 
49 45 40 41 49 33 60 72 46 21 23 36 42 35 36 41 39 88 94 88 91 97 98 99 118 
106 26 11 26 18 25 40 20 12 12 14 17 56 64 43 79 67 53 51 47 43 23 14 13 9 8 8 
11 9 6 9 27 49 66 66 7 27 41 41 54 72 57 12 6 6 6 7 18 34 44 52 52 58 56 51 66 
72 67 59 47 38 30 19 20 23 28 35 41 45 48 55 57 54 52 49 33 27 19 14 9 11 24 
39 38 40 44 45 47 48 49 50 49 49 48 47 
