P2
20 16
255
128 128 128 128 128 128 128 128 128 128 128 128 128 128 128 128 128 128 128 
128 128 128 128 128 128 128 128 128 128 131 128 128 128 128 128 133 128 128 
128 128 128 128 128 128 128 128 128 128 133 150 166 148 125 128 137 128 119 
132 117 102 128 128 128 128 128 121 117 127 174 179 165 183 177 169 104 90 120 
128 179 210 128 128 131 127 129 157 163 170 179 184 173 178 184 164 37 34 96 
149 205 161 109 123 78 120 135 160 159 187 160 133 96 151 164 126 31 30 70 147 
152 162 207 181 36 123 136 155 147 127 115 124 116 151 126 86 25 27 34 88 71 
167 188 107 33 51 127 114 143 69 115 160 160 168 140 107 30 28 34 50 46 65 113 
84 31 28 86 108 163 151 155 155 169 184 170 126 28 32 33 44 50 37 158 114 31 
15 138 165 165 165 145 109 170 173 105 79 31 37 51 50 57 45 146 59 34 30 92 117 
146 160 149 63 156 148 33 33 42 50 36 41 51 52 33 37 32 33 44 42 129 134 104 
129 83 105 63 45 52 45 38 40 45 40 32 32 41 35 40 60 81 69 83 119 117 67 39 33 
41 35 40 36 49 50 33 33 33 35 52 56 47 32 127 118 59 40 40 54 43 32 32 32 30 
44 32 46 49 35 30 26 30 62 140 59 44 36 46 59 51 37 32 38 39 50 49 52 49 44 44 
24 51 145 95 30 36 37 50 49 42 35 38 58 65 48 
