P2
20 16
255
118 120 121 122 123 124 125 126 127 128 129 129 130 131 131 132 133 133 133 
133 123 124 125 127 128 130 131 132 133 136 135 136 137 137 138 142 138 139 
139 139 128 130 131 133 134 136 137 138 142 152 164 154 129 131 137 128 124 
132 118 106 133 135 137 138 140 125 121 129 170 175 166 179 173 173 106 93 120 
126 175 207 138 139 141 137 136 160 163 169 177 179 170 174 179 158 38 35 96 
149 199 159 115 125 82 122 137 160 157 183 156 134 98 152 163 126 30 30 71 150 
152 161 199 174 35 127 133 157 149 124 117 123 116 150 126 85 23 25 33 91 73 
164 187 108 30 48 127 113 143 70 116 162 159 170 138 106 30 29 33 50 43 64 116 
82 29 25 88 109 164 153 153 158 169 180 175 132 29 33 37 43 50 42 159 112 27 
18 140 167 162 166 147 110 173 173 103 79 31 37 49 50 56 48 145 59 35 29 91 115 
145 163 146 61 155 148 31 30 44 50 39 44 52 52 35 39 33 33 43 45 129 135 103 
127 80 106 63 45 51 41 38 41 45 41 29 36 40 33 40 62 77 70 84 118 114 67 40 30 
44 38 39 35 48 49 41 37 38 36 50 52 48 37 127 120 61 42 40 52 43 33 32 32 28 
50 30 43 46 38 32 28 32 65 140 60 44 39 47 57 49 38 33 37 34 49 47 50 47 44 39 
26 50 142 93 25 33 36 49 48 46 35 35 59 63 46 
