P2
20 16
255
118 120 121 122 123 124 125 126 127 128 129 130 130 131 131 133 133 133 133 
133 123 124 125 127 128 130 131 133 134 137 135 136 137 138 138 142 138 139 
139 139 128 130 131 133 135 136 137 138 142 152 164 154 129 131 137 128 124 
132 119 106 133 136 137 139 140 126 121 129 170 175 166 179 173 173 106 92 120 
126 175 207 138 140 141 137 136 159 163 169 177 179 170 174 179 158 39 35 96 
149 199 159 115 124 82 122 137 160 157 183 156 134 98 152 163 126 30 30 71 150 
152 161 199 174 35 127 133 156 149 124 117 123 116 150 126 85 23 26 33 91 73 
164 187 109 30 48 127 113 143 70 116 162 159 170 137 106 30 30 33 51 43 64 116 
82 30 26 88 108 164 153 153 158 169 180 175 132 29 33 37 43 50 42 159 113 27 
18 140 167 161 166 147 110 172 173 103 79 31 37 49 50 57 49 145 59 35 29 91 115 
145 164 146 61 155 148 32 31 44 50 39 44 53 52 35 39 33 33 44 45 129 135 103 
127 80 106 63 46 52 41 38 42 45 41 29 36 41 33 41 62 77 70 85 118 114 67 40 30 
44 38 40 35 48 49 41 37 38 37 50 52 48 37 127 120 61 43 41 52 44 33 32 33 28 
51 30 43 47 38 32 28 32 65 140 60 44 40 48 57 49 38 34 38 35 49 47 50 47 45 39 
26 50 142 93 25 34 36 49 49 46 35 36 60 63 47 
