P2
20 16
255
118 125 128 128 128 128 128 128 128 128 128 128 128 128 128 128 128 128 128 
128 128 128 128 128 128 128 128 128 128 131 130 132 133 135 137 141 139 142 
143 141 128 128 128 128 128 130 134 137 143 151 166 158 134 134 138 125 126 
135 121 108 128 128 133 139 144 129 123 133 170 175 168 179 171 171 107 93 119 
129 176 207 137 145 148 142 139 160 162 168 177 180 171 174 182 161 41 33 97 
147 199 160 118 127 82 123 137 158 158 183 155 134 99 154 164 125 28 30 68 150 
152 162 197 170 35 128 132 157 149 124 117 123 115 149 125 84 23 26 33 90 72 
162 187 111 29 49 127 116 143 70 116 162 159 170 135 106 30 29 32 51 43 63 118 
82 30 27 89 107 163 155 154 159 168 181 173 131 31 33 37 42 50 43 158 111 28 
18 140 167 162 165 145 113 173 174 104 77 31 39 48 49 59 49 146 60 35 29 90 115 
142 162 149 62 158 147 30 31 44 49 39 44 55 52 34 39 34 31 42 46 129 138 102 
128 78 107 63 46 52 41 37 41 44 41 29 36 40 32 43 62 74 71 87 119 112 67 40 29 
46 39 39 36 49 49 42 35 38 37 48 50 49 38 128 122 63 44 40 55 43 32 31 34 29 
51 30 42 46 37 32 29 34 64 141 61 44 41 48 56 49 38 34 37 37 49 45 48 47 45 39 
27 51 139 92 28 33 37 49 50 48 34 36 61 64 45 
