P2
20 15
255
116 92 109 121 122 122 107 120 92 112 125 117 125 104 114 116 129 101 74 58 144 
134 128 126 138 133 139 139 121 131 137 144 129 123 115 119 119 116 84 57 160 
129 137 134 134 129 128 136 141 132 127 135 136 137 129 118 111 111 84 56 160 
128 134 133 142 129 138 140 133 138 135 132 132 134 129 120 117 104 77 58 169 
141 146 137 146 142 140 131 139 128 140 143 133 137 133 128 123 106 71 53 167 
143 142 138 147 129 137 139 137 133 134 139 126 121 123 125 126 107 73 53 162 
141 138 133 146 136 148 145 132 127 131 131 134 121 123 132 117 111 77 53 168 
146 139 139 137 136 138 140 139 135 134 128 118 128 122 127 122 114 74 52 159 
140 137 146 138 137 141 136 144 138 134 128 135 126 128 124 126 104 68 54 168 
128 134 136 144 135 142 130 138 130 136 130 131 121 125 130 129 112 78 53 171 
139 140 144 148 151 152 153 138 137 155 134 128 113 118 130 124 111 78 50 170 
128 121 132 137 151 146 137 140 133 153 141 141 133 135 127 114 106 67 51 167 
123 133 137 127 124 130 125 131 125 130 126 128 131 131 130 115 104 69 48 165 
125 127 133 135 129 122 120 124 116 123 124 121 123 115 110 110 98 73 51 174 
144 135 134 131 128 123 129 124 132 128 119 119 124 119 118 104 95 64 48 
