P2
20 15
255
110 111 99 103 96 103 102 128 117 113 120 122 88 108 99 116 123 106 103 127 
111 110 139 117 135 135 120 136 137 127 122 116 96 114 126 117 113 107 115 119 
106 146 162 145 138 142 137 142 140 126 125 111 105 105 106 112 117 112 112 
122 139 149 167 142 143 138 145 132 135 132 118 108 87 111 124 126 112 107 110 
123 148 143 175 143 146 149 150 147 147 141 125 124 88 100 125 132 122 110 112 
132 154 151 178 154 155 148 141 143 144 141 133 122 89 96 106 124 116 108 103 
132 147 147 167 153 153 145 146 146 132 129 128 122 90 106 125 118 122 106 108 
128 149 151 166 152 154 158 143 136 147 129 139 133 100 97 115 131 109 110 107 
115 153 145 173 154 148 150 149 142 127 130 132 117 97 97 120 117 118 104 102 
131 147 138 154 149 152 145 147 139 134 131 129 125 104 98 119 119 128 118 114 
117 149 140 165 146 150 147 145 145 141 134 132 128 91 90 116 121 112 100 108 
115 150 147 163 155 159 160 145 146 138 134 137 135 99 93 110 111 114 105 103 
114 150 142 156 145 149 161 161 154 141 126 125 131 106 95 117 122 114 114 111 
123 161 139 150 149 149 153 148 155 150 129 132 131 109 93 116 117 124 107 104 
116 156 145 146 148 145 134 135 144 140 145 144 123 102 93 116 126 118 108 101 
122 
