P2
20 14
255
108 114 118 106 123 117 122 116 103 109 122 120 113 109 109 105 102 76 47 66 
117 113 117 115 118 111 117 122 122 117 108 122 117 113 107 99 97 90 52 63 112 
111 117 115 121 115 120 121 118 118 121 111 117 116 104 102 95 71 50 59 126 
124 121 125 127 121 121 116 119 111 124 125 116 121 113 110 100 69 46 59 128 
120 121 124 127 113 122 120 119 115 119 119 107 105 108 111 103 70 47 57 122 
122 113 115 126 119 128 124 112 109 114 110 106 106 111 105 100 72 46 56 123 
127 120 124 118 116 120 120 121 116 114 114 106 113 108 105 105 68 42 55 113 
120 119 120 114 121 124 121 127 121 118 112 118 110 118 115 106 69 50 56 108 
120 114 121 129 119 126 112 114 121 118 112 105 103 103 112 102 79 43 59 117 
117 117 122 129 131 132 137 123 123 142 122 115 107 110 106 99 67 44 62 109 
105 116 111 126 127 123 113 125 106 123 112 111 114 122 109 89 70 41 56 103 
109 115 109 105 100 100 100 104 102 110 104 112 104 97 98 89 68 44 52 109 105 
113 114 115 113 111 109 107 103 101 106 106 102 107 93 91 59 39 49 134 117 116 
115 115 109 108 109 109 112 116 108 107 103 98 92 88 62 40 49 
